<svg width="22" height="22" viewBox="0 0 22 22" fill="none" xmlns="http://www.w3.org/2000/svg">
<path d="M7.60828 9.16673C7.49011 9.17318 7.37246 9.14683 7.26834 9.09058C7.16421 9.03433 7.07767 8.95039 7.01829 8.84803C6.9589 8.74566 6.92898 8.62887 6.93183 8.51056C6.93468 8.39225 6.97019 8.27703 7.03444 8.17765L10.4499 2.75007C10.5036 2.65342 10.5813 2.57228 10.6756 2.51451C10.7698 2.45674 10.8774 2.4243 10.9879 2.42033C11.0984 2.41637 11.208 2.44101 11.3062 2.49188C11.4043 2.54274 11.4876 2.6181 11.5481 2.71065L14.9416 8.1584C15.0085 8.25446 15.0478 8.36698 15.0554 8.4838C15.0629 8.60061 15.0383 8.71725 14.9843 8.8211C14.9303 8.92496 14.8489 9.01206 14.749 9.07298C14.649 9.1339 14.5343 9.16632 14.4173 9.16673H7.60828Z" stroke="#828282" stroke-width="2" stroke-linecap="round" stroke-linejoin="round"/>
<path d="M8.25 12.8333H3.66667C3.16041 12.8333 2.75 13.2437 2.75 13.7499V18.3333C2.75 18.8395 3.16041 19.2499 3.66667 19.2499H8.25C8.75626 19.2499 9.16667 18.8395 9.16667 18.3333V13.7499C9.16667 13.2437 8.75626 12.8333 8.25 12.8333Z" stroke="#828282" stroke-width="2" stroke-linecap="round" stroke-linejoin="round"/>
<path d="M16.0418 19.2499C17.8137 19.2499 19.2502 17.8135 19.2502 16.0416C19.2502 14.2697 17.8137 12.8333 16.0418 12.8333C14.2699 12.8333 12.8335 14.2697 12.8335 16.0416C12.8335 17.8135 14.2699 19.2499 16.0418 19.2499Z" stroke="#828282" stroke-width="2" stroke-linecap="round" stroke-linejoin="round"/>
</svg>
