<svg width="22" height="22" viewBox="0 0 22 22" fill="none" xmlns="http://www.w3.org/2000/svg">
<path d="M18.3333 2.75H3.66667C3.16041 2.75 2.75 3.16041 2.75 3.66667V8.25C2.75 8.75626 3.16041 9.16667 3.66667 9.16667H18.3333C18.8396 9.16667 19.25 8.75626 19.25 8.25V3.66667C19.25 3.16041 18.8396 2.75 18.3333 2.75Z" stroke="#828282" stroke-width="2" stroke-linecap="round" stroke-linejoin="round"/>
<path d="M10.0833 12.8333H3.66667C3.16041 12.8333 2.75 13.2437 2.75 13.7499V18.3333C2.75 18.8395 3.16041 19.2499 3.66667 19.2499H10.0833C10.5896 19.2499 11 18.8395 11 18.3333V13.7499C11 13.2437 10.5896 12.8333 10.0833 12.8333Z" stroke="#828282" stroke-width="2" stroke-linecap="round" stroke-linejoin="round"/>
<path d="M18.3332 12.8333H15.5832C15.0769 12.8333 14.6665 13.2437 14.6665 13.7499V18.3333C14.6665 18.8395 15.0769 19.2499 15.5832 19.2499H18.3332C18.8394 19.2499 19.2498 18.8395 19.2498 18.3333V13.7499C19.2498 13.2437 18.8394 12.8333 18.3332 12.8333Z" stroke="#828282" stroke-width="2" stroke-linecap="round" stroke-linejoin="round"/>
</svg>
