<svg width="22" height="22" viewBox="0 0 22 22" fill="none" xmlns="http://www.w3.org/2000/svg">
<path d="M14.6665 11.9166L19.4543 15.1084C19.5233 15.1543 19.6035 15.1807 19.6863 15.1847C19.7691 15.1886 19.8514 15.17 19.9245 15.1309C19.9976 15.0918 20.0587 15.0336 20.1013 14.9624C20.1439 14.8913 20.1665 14.81 20.1665 14.7271V7.21408C20.1665 7.13344 20.1453 7.05421 20.1049 6.98441C20.0645 6.91461 20.0064 6.8567 19.9365 6.81652C19.8665 6.77635 19.7873 6.75534 19.7066 6.75562C19.626 6.75589 19.5468 6.77744 19.4772 6.81808L14.6665 9.62492" stroke="#828282" stroke-width="2" stroke-linecap="round" stroke-linejoin="round"/>
<path d="M12.8335 5.5H3.66683C2.65431 5.5 1.8335 6.32081 1.8335 7.33333V14.6667C1.8335 15.6792 2.65431 16.5 3.66683 16.5H12.8335C13.846 16.5 14.6668 15.6792 14.6668 14.6667V7.33333C14.6668 6.32081 13.846 5.5 12.8335 5.5Z" stroke="#828282" stroke-width="2" stroke-linecap="round" stroke-linejoin="round"/>
</svg>
