<svg width="22" height="22" viewBox="0 0 22 22" fill="none" xmlns="http://www.w3.org/2000/svg">
<g clip-path="url(#clip0_372_9717)">
<path d="M19.745 13.75H15.5833C15.0971 13.75 14.6308 13.9432 14.287 14.287C13.9432 14.6308 13.75 15.0971 13.75 15.5833V19.745" stroke="#828282" stroke-width="2" stroke-linecap="round" stroke-linejoin="round"/>
<path d="M6.4165 3.06177V4.58343C6.4165 5.31278 6.70624 6.01225 7.22196 6.52798C7.73769 7.0437 8.43716 7.33343 9.1665 7.33343C9.65273 7.33343 10.119 7.52659 10.4629 7.87041C10.8067 8.21422 10.9998 8.68054 10.9998 9.16677C10.9998 10.1751 11.8248 11.0001 12.8332 11.0001C13.3194 11.0001 13.7857 10.8069 14.1295 10.4631C14.4733 10.1193 14.6665 9.653 14.6665 9.16677C14.6665 8.15843 15.4915 7.33343 16.4998 7.33343H19.4057" stroke="#828282" stroke-width="2" stroke-linecap="round" stroke-linejoin="round"/>
<path d="M10.0836 20.1208V16.4999C10.0836 16.0137 9.89041 15.5474 9.54659 15.2036C9.20277 14.8597 8.73646 14.6666 8.25023 14.6666C7.764 14.6666 7.29768 14.4734 6.95387 14.1296C6.61005 13.7858 6.41689 13.3195 6.41689 12.8333V11.9166C6.41689 11.4304 6.22374 10.964 5.87992 10.6202C5.53611 10.2764 5.06979 10.0833 4.58356 10.0833H1.87939" stroke="#828282" stroke-width="2" stroke-linecap="round" stroke-linejoin="round"/>
<path d="M11.0002 20.1666C16.0628 20.1666 20.1668 16.0625 20.1668 10.9999C20.1668 5.93731 16.0628 1.83325 11.0002 1.83325C5.93755 1.83325 1.8335 5.93731 1.8335 10.9999C1.8335 16.0625 5.93755 20.1666 11.0002 20.1666Z" stroke="#828282" stroke-width="2" stroke-linecap="round" stroke-linejoin="round"/>
</g>
<defs>
<clipPath id="clip0_372_9717">
<rect width="22" height="22" fill="white"/>
</clipPath>
</defs>
</svg>
