<svg width="13" height="13" viewBox="0 0 13 13" fill="none" xmlns="http://www.w3.org/2000/svg">
<path d="M6.49863 10.0686V10.0681C6.1962 10.0681 5.91183 9.9372 5.71773 9.71602L1.28511 4.67448L1.2806 4.66996C0.98268 4.31337 1.02782 3.78976 1.3799 3.49184C1.71844 3.20296 2.22399 3.23455 2.52642 3.56407L6.39887 7.96599L6.39436 7.96148C6.43498 8.00662 6.50269 8.01113 6.55234 7.97051C6.55234 7.96599 6.55686 7.96148 6.56137 7.95696L10.4338 3.55504V3.55052C10.7272 3.19393 11.2553 3.14879 11.6074 3.4467C11.9595 3.74011 12.0046 4.26823 11.7067 4.62031C11.6977 4.62934 11.6887 4.63837 11.6797 4.64739L7.25154 9.67585V9.67133C7.05293 9.89251 6.76856 10.0234 6.46613 10.0234L6.49863 10.0686Z" fill="#646464"/>
</svg>
