<svg width="15" height="15" viewBox="0 0 15 15" fill="none" xmlns="http://www.w3.org/2000/svg">
<path d="M7.49823 11.6176V11.617C7.14927 11.617 6.82115 11.466 6.59719 11.2108L1.48263 5.39363L1.47742 5.38842C1.13367 4.97696 1.18576 4.3728 1.59201 4.02905C1.98263 3.69572 2.56596 3.73218 2.91492 4.11238L7.38313 9.19153L7.37792 9.18632C7.42479 9.2384 7.50292 9.24361 7.56021 9.19674C7.56021 9.19153 7.56542 9.18632 7.57063 9.18111L12.0388 4.10197V4.09676C12.3774 3.6853 12.9868 3.63322 13.393 3.97697C13.7992 4.31551 13.8513 4.92488 13.5076 5.33113C13.4972 5.34154 13.4867 5.35196 13.4763 5.36238L8.36698 11.1644V11.1592C8.13781 11.4144 7.80969 11.5655 7.46073 11.5655L7.49823 11.6176Z" fill="#A0A0A0"/>
</svg>
