<svg width="25" height="25" viewBox="0 0 25 25" fill="none" xmlns="http://www.w3.org/2000/svg">
<path d="M13.9859 12.6774L13.9799 12.6713C13.919 12.6104 13.919 12.5131 13.9738 12.4522C13.9738 12.4461 13.9738 12.4461 13.9738 12.4461L19.6112 6.80445V6.79836C19.9642 6.43929 19.9642 5.86113 19.6051 5.50206C19.246 5.14299 18.6679 5.14299 18.3088 5.50206L12.6671 11.1316V11.1255C12.6063 11.1802 12.5089 11.1802 12.448 11.1255C12.4419 11.1194 12.4419 11.1194 12.4419 11.1194L6.79845 5.47832C6.43938 5.11925 5.86121 5.11925 5.50214 5.47223C5.14307 5.82522 5.14307 6.40338 5.49606 6.76245L11.1316 12.398C11.1864 12.4528 11.1864 12.5502 11.1316 12.611C11.1256 12.611 11.1256 12.611 11.1256 12.611L5.48388 18.2466H5.4778C5.11873 18.5996 5.11873 19.1778 5.4778 19.5368C5.83078 19.8898 6.40895 19.8898 6.76802 19.5308V19.5302L12.4036 13.8885H12.3975C12.4523 13.8276 12.5497 13.8276 12.6105 13.8824L18.2461 19.518L18.24 19.5119C18.593 19.8649 19.1712 19.8649 19.5302 19.5119C19.8832 19.1528 19.8832 18.5747 19.5302 18.2156L13.9859 12.6774Z" fill="#464646"/>
</svg>
