<svg width="24" height="24" viewBox="0 0 24 24" fill="none" xmlns="http://www.w3.org/2000/svg">
<g opacity="0.4">
<path d="M21.3454 19.8754L15.9046 14.4338V14.4255C18.4879 11.0171 17.8296 6.16716 14.4296 3.58384C11.0171 0.992183 6.16716 1.65051 3.58384 5.0505C0.992183 8.45049 1.65051 13.3005 5.0505 15.8838C7.81716 17.9838 11.6505 17.9838 14.4171 15.8755L19.8579 21.3163C20.2663 21.7079 20.9163 21.7079 21.3246 21.3079H21.3163C21.7163 20.8996 21.7163 20.2413 21.3079 19.8329L21.3454 19.8754ZM4.1505 9.77548C4.14217 6.66716 6.66716 4.14217 9.76715 4.14217C12.8671 4.13384 15.3921 6.65883 15.3921 9.75882C15.3921 12.8588 12.8671 15.3838 9.76715 15.3838L9.75881 15.383C6.65049 15.3746 4.13384 12.858 4.1255 9.75798L4.1505 9.77548Z" fill="#959BA7"/>
</g>
</svg>
