<svg width="20" height="20" viewBox="0 0 20 20" fill="none" xmlns="http://www.w3.org/2000/svg">
<path d="M3.36684 10.0402C3.36684 10.4959 3.73914 10.8682 4.20034 10.8682H9.06247H9.05691C9.12915 10.8626 9.19583 10.9293 9.19583 11.0015V15.8636C9.19583 16.3193 9.56813 16.6916 10.0293 16.6916C10.485 16.686 10.8573 16.3137 10.8573 15.8525V10.9904C10.8517 10.9126 10.9184 10.8459 10.9906 10.8459H15.8528L15.8472 10.8454C16.3029 10.8454 16.6807 10.4675 16.6807 10.0119C16.6807 9.55066 16.3029 9.17836 15.8472 9.17836H10.9851H10.9795C10.9017 9.1728 10.8406 9.11168 10.8406 9.03388V4.16676C10.8406 3.70555 10.4628 3.33325 10.0071 3.33325C9.5459 3.33325 9.1736 3.70555 9.1736 4.16676V9.02888C9.1736 9.10112 9.10692 9.1678 9.03468 9.1678H4.17256H4.167C3.7058 9.1678 3.3335 9.5401 3.3335 10.0013L3.36684 10.0402Z" fill="#646464"/>
</svg>
