<svg width="15" height="15" viewBox="0 0 15 15" fill="none" xmlns="http://www.w3.org/2000/svg">
<path d="M11.5782 7.51506L11.573 7.50985C11.573 7.8536 11.422 8.18173 11.1667 8.40568L5.35427 13.515V13.5098C4.94281 13.8484 4.33865 13.7963 3.9949 13.39C3.66157 12.9942 3.69802 12.4109 4.07823 12.0619L9.15738 7.59371H9.15217C9.20425 7.54162 9.20946 7.4635 9.16258 7.40621C9.15738 7.401 9.15217 7.39579 9.14696 7.39058L4.06261 2.92133C3.66677 2.55675 3.64594 1.95258 4.00531 1.56196C4.34906 1.18175 4.93239 1.1453 5.32823 1.47342L11.1303 6.57757C11.3855 6.80152 11.5365 7.12965 11.5365 7.4786L11.5782 7.51506Z" fill="#A0A0A0"/>
</svg>
