<svg width="5" height="17" viewBox="0 0 5 17" fill="none" xmlns="http://www.w3.org/2000/svg">
<path d="M2.30193 12.3961C2.91246 12.3961 3.4978 12.6388 3.92951 13.0705C4.36122 13.5022 4.60386 14.0875 4.60386 14.6981C4.60382 15.3086 4.3612 15.894 3.92951 16.3257C3.49781 16.7573 2.91241 17 2.30193 17C1.69143 17 1.10603 16.7573 0.674342 16.3257C0.242657 15.894 3.20024e-05 15.3086 0 14.6981C0 14.0876 0.242701 13.5022 0.674342 13.0705C1.10603 12.6388 1.69143 12.3962 2.30193 12.3961ZM2.30193 6.19857C2.91228 6.19857 3.49784 6.44045 3.92951 6.87192C4.36123 7.30363 4.60386 7.88996 4.60386 8.5005C4.60377 9.11092 4.36115 9.69644 3.92951 10.1281C3.49782 10.5597 2.91236 10.8024 2.30193 10.8024C1.69148 10.8024 1.10602 10.5597 0.674342 10.1281C0.242703 9.69644 8.40262e-05 9.11092 0 8.5005C0 7.88996 0.242628 7.30363 0.674342 6.87192C1.106 6.44041 1.69157 6.1986 2.30193 6.19857ZM2.30193 0C2.91246 0 3.4978 0.242628 3.92951 0.674342C4.36119 1.10605 4.60386 1.69142 4.60386 2.30193C4.6038 2.91238 4.36117 3.49785 3.92951 3.92951C3.49782 4.36112 2.91238 4.60386 2.30193 4.60386C1.69146 4.60383 1.10602 4.36117 0.674342 3.92951C0.242681 3.49785 5.9714e-05 2.91238 0 2.30193C0 1.69147 0.242734 1.10604 0.674342 0.674342C1.10603 0.242654 1.69143 2.93537e-05 2.30193 0Z" fill="#646464"/>
</svg>
